<svg id="visual" viewBox="0 0 900 600" width="900" height="600" xmlns="http://www.w3.org/2000/svg" version="1.1"><path d="M0 412L16.7 416.7C33.3 421.3 66.7 430.7 100 438.5C133.3 446.3 166.7 452.7 200 444C233.3 435.3 266.7 411.7 300 400.5C333.3 389.3 366.7 390.7 400 395.7C433.3 400.7 466.7 409.3 500 408.7C533.3 408 566.7 398 600 396.3C633.3 394.7 666.7 401.3 700 409C733.3 416.7 766.7 425.3 800 422.8C833.3 420.3 866.7 406.7 883.3 399.8L900 393L900 601L883.3 601C866.7 601 833.3 601 800 601C766.7 601 733.3 601 700 601C666.7 601 633.3 601 600 601C566.7 601 533.3 601 500 601C466.7 601 433.3 601 400 601C366.7 601 333.3 601 300 601C266.7 601 233.3 601 200 601C166.7 601 133.3 601 100 601C66.7 601 33.3 601 16.7 601L0 601Z" fill="#5e4fbd"></path><path d="M0 477L16.7 471.5C33.3 466 66.7 455 100 446C133.3 437 166.7 430 200 437.5C233.3 445 266.7 467 300 477.8C333.3 488.7 366.7 488.3 400 483.7C433.3 479 466.7 470 500 463.7C533.3 457.3 566.7 453.7 600 454.7C633.3 455.7 666.7 461.3 700 457.3C733.3 453.3 766.7 439.7 800 442C833.3 444.3 866.7 462.7 883.3 471.8L900 481L900 601L883.3 601C866.7 601 833.3 601 800 601C766.7 601 733.3 601 700 601C666.7 601 633.3 601 600 601C566.7 601 533.3 601 500 601C466.7 601 433.3 601 400 601C366.7 601 333.3 601 300 601C266.7 601 233.3 601 200 601C166.7 601 133.3 601 100 601C66.7 601 33.3 601 16.7 601L0 601Z" fill="#9644b6"></path><path d="M0 505L16.7 505.8C33.3 506.7 66.7 508.3 100 510.5C133.3 512.7 166.7 515.3 200 510.8C233.3 506.3 266.7 494.7 300 488C333.3 481.3 366.7 479.7 400 478.2C433.3 476.7 466.7 475.3 500 478.8C533.3 482.3 566.7 490.7 600 496.7C633.3 502.7 666.7 506.3 700 501.5C733.3 496.7 766.7 483.3 800 475.2C833.3 467 866.7 464 883.3 462.5L900 461L900 601L883.3 601C866.7 601 833.3 601 800 601C766.7 601 733.3 601 700 601C666.7 601 633.3 601 600 601C566.7 601 533.3 601 500 601C466.7 601 433.3 601 400 601C366.7 601 333.3 601 300 601C266.7 601 233.3 601 200 601C166.7 601 133.3 601 100 601C66.7 601 33.3 601 16.7 601L0 601Z" fill="#c135a7"></path><path d="M0 505L16.7 505.8C33.3 506.7 66.7 508.3 100 509C133.3 509.7 166.7 509.3 200 512C233.3 514.7 266.7 520.3 300 524.7C333.3 529 366.7 532 400 536.2C433.3 540.3 466.7 545.7 500 540.8C533.3 536 566.7 521 600 514.5C633.3 508 666.7 510 700 511.2C733.3 512.3 766.7 512.7 800 515.7C833.3 518.7 866.7 524.3 883.3 527.2L900 530L900 601L883.3 601C866.7 601 833.3 601 800 601C766.7 601 733.3 601 700 601C666.7 601 633.3 601 600 601C566.7 601 533.3 601 500 601C466.7 601 433.3 601 400 601C366.7 601 333.3 601 300 601C266.7 601 233.3 601 200 601C166.7 601 133.3 601 100 601C66.7 601 33.3 601 16.7 601L0 601Z" fill="#e32691"></path><path d="M0 582L16.7 575.2C33.3 568.3 66.7 554.7 100 553.7C133.3 552.7 166.7 564.3 200 565.8C233.3 567.3 266.7 558.7 300 552.7C333.3 546.7 366.7 543.3 400 543C433.3 542.7 466.7 545.3 500 545.2C533.3 545 566.7 542 600 547.7C633.3 553.3 666.7 567.7 700 570.8C733.3 574 766.7 566 800 559.8C833.3 553.7 866.7 549.3 883.3 547.2L900 545L900 601L883.3 601C866.7 601 833.3 601 800 601C766.7 601 733.3 601 700 601C666.7 601 633.3 601 600 601C566.7 601 533.3 601 500 601C466.7 601 433.3 601 400 601C366.7 601 333.3 601 300 601C266.7 601 233.3 601 200 601C166.7 601 133.3 601 100 601C66.7 601 33.3 601 16.7 601L0 601Z" fill="#fb2576"></path></svg>