<svg id="visual" viewBox="0 0 900 600" width="900" height="600" xmlns="http://www.w3.org/2000/svg" xmlns:xlink="http://www.w3.org/1999/xlink" version="1.1"><path d="M0 153L18.8 140.7C37.7 128.3 75.3 103.7 112.8 96.7C150.3 89.7 187.7 100.3 225.2 118C262.7 135.7 300.3 160.3 337.8 151C375.3 141.7 412.7 98.3 450.2 96.5C487.7 94.7 525.3 134.3 562.8 131.8C600.3 129.3 637.7 84.7 675.2 78.2C712.7 71.7 750.3 103.3 787.8 119C825.3 134.7 862.7 134.3 881.3 134.2L900 134L900 0L881.3 0C862.7 0 825.3 0 787.8 0C750.3 0 712.7 0 675.2 0C637.7 0 600.3 0 562.8 0C525.3 0 487.7 0 450.2 0C412.7 0 375.3 0 337.8 0C300.3 0 262.7 0 225.2 0C187.7 0 150.3 0 112.8 0C75.3 0 37.7 0 18.8 0L0 0Z" fill="#f5f5f5" stroke-linecap="round" stroke-linejoin="miter"></path></svg>